<svg width="335" height="280" viewBox="0 0 335 280" fill="none" xmlns="http://www.w3.org/2000/svg">
<path d="M138.996 665.103H114.771C107.43 509.472 97.1521 203.495 114.771 224.638C132.389 245.78 138.262 527.09 138.996 665.103Z" fill="#9C7778"/>
<path d="M99.3487 667.306H121.372L119.17 636.473H130.181L132.384 629.866H119.17V614.45H132.384V605.641H121.372V477.906L132.384 473.501V469.096H119.17V462.489L130.181 455.882V449.275L119.17 451.478L114.765 308.327L125.777 299.517C119.904 277.494 108.598 230.805 92.7417 220.234C117.408 244.9 107.424 528.559 99.3487 667.306Z" fill="#754749"/>
<path d="M15.6632 253.267L-6.36009 259.874L-10.7647 237.851L-17.3717 242.256V268.684C-29.1175 276.759 -53.4899 292.909 -57.0136 292.909C-61.4182 292.909 -50.4066 251.065 -37.1926 237.851C-23.9787 224.637 13.4605 178.388 59.7093 187.198C42.0907 165.174 -8.56274 83.6884 -1.95576 77.0814C5.09167 80.6051 59.7093 151.96 86.1373 187.198C78.7962 135.076 86.1373 24.666 174.23 0C167.183 22.9042 156.612 60.931 152.207 77.0814L130.184 81.486L147.802 85.8907V92.4977H116.97V99.1046H138.993C135.364 115.798 127.716 149.428 125.841 151.888C139.327 136.272 247.043 48.5636 335 121.128C315.62 131.699 290.219 141.683 279.942 145.353L260.121 121.128L268.93 145.353H260.121L235.895 125.533L251.312 151.96L229.288 160.77L196.254 136.544L216.074 169.579L161.016 196.007C193.317 202.614 262.323 225.518 279.942 264.279C264.085 260.755 224.884 259.874 207.265 259.874L196.254 224.637H187.444L196.254 248.863L147.802 231.244C166.155 254.736 202.861 305.683 202.861 321.539C190.527 312.73 146.334 269.418 125.779 248.863L116.97 231.244L114.767 222.435L105.958 237.851L92.7442 218.03C80.2251 223.169 55.639 234.327 57.448 237.851C59.2571 241.375 47.9636 226.105 42.0907 218.03V242.256L26.6745 218.03L31.0791 248.863L15.6632 253.267Z" fill="#02D186"/>
<path d="M13.4594 253.267L28.8756 191.602C55.3035 195.126 58.9741 184.261 57.5059 178.388L39.8873 160.77L53.1012 145.353C53.1012 143.151 55.3035 143.151 64.1128 160.77C75.1245 182.793 94.9454 180.59 88.3384 176.186C83.0528 172.662 86.1361 143.885 88.3384 129.937C90.5407 143.885 96.2668 171.781 101.552 171.781C108.159 171.781 125.778 129.937 127.98 134.342C129.528 137.437 122.373 156.85 117.984 165.822C124.276 161.739 138.16 157.458 144.667 154.64C145.932 152.618 147.019 151.569 147.801 151.96C148.881 152.5 147.447 153.436 144.667 154.64C140.235 161.724 133.609 180.751 130.183 191.602L191.848 160.77V129.937C199.189 143.151 213.43 169.579 211.669 169.579C209.907 169.579 174.229 187.197 156.611 196.007C160.281 198.943 166.301 204.376 161.015 202.614C155.73 200.852 122.107 220.966 105.957 231.244C100.818 229.042 90.1003 222.875 88.3384 215.828C86.5766 208.78 64.1128 223.169 53.1012 231.244L44.2919 215.828L39.8873 220.232L44.2919 235.649L39.8873 240.053L31.078 220.232L28.8756 224.637L31.078 246.66L13.4594 253.267Z" fill="#02B172"/>
<path d="M158.81 281.898C158.81 274.85 129.446 248.129 114.764 235.649C113.295 231.244 113.442 222.435 125.775 222.435C138.108 222.435 163.215 250.331 174.226 264.279H163.215C161.746 273.089 158.81 288.945 158.81 281.898Z" fill="#84CF98"/>
<path d="M112.564 173.984C150.004 147.556 236.335 95.1412 282.143 96.903C218.276 92.4983 150.004 114.522 112.564 173.984Z" fill="#04F39D"/>
</svg>
